# xmcd
#
# Track frame offsets:
#	150
#	21385
#	39440
#	59440
#	83860
#	103497
#	121410
#	145960
#	164872
#	185722
#	208367
#	226962
#	250905
#	268185
#
# Disc length: 3872
#
# Revision: 2
# Processed by: cddbd v1.5.1PL0 Copyright (c) Steve Scherf et al.
# Submitted via: CDmax 1.8
# Normalized: r1:DSETVAR1,TDELIM( - )
#
DISCID=df0f1e0e
DTITLE=Various Artist - Tribute to Roger Troutman
DYEAR=2000
DGENRE=Funk
TTITLE0=2 Pac ft Dr. Dre and Roger Troutman - California Love
TTITLE1=Paperboy - Ditty
TTITLE2=Blackstreet - Booti Call
TTITLE3=H-Town - Knockin' Da Boots
TTITLE4=EPMD - You Gots to Chill
TTITLE5=M.C. Breed - Ain't No Future in Yo Frontin'
TTITLE6=Ronnie Hudson - West Coast Poplock
TTITLE7=Mokenstef - He's Mine
TTITLE8=TWDY ft Too $hort and Dolla Will - Cali 4 ni yey
TTITLE9=SWV - Weak (Bam Jams Jeep Mix)
TTITLE10=Donell Jones - In the Hood (Remix)
TTITLE11=Jodeci - What About Us
TTITLE12=A.L.T., JV, Cisco, Mr. Gee, Baby Beesh, C-Blunt, Sure 2 B and Bigg Robb - Player's City
TTITLE13=Chantay - True Love
EXTD=
EXTT0=
EXTT1=
EXTT2=
EXTT3=
EXTT4=
EXTT5=
EXTT6=
EXTT7=
EXTT8=
EXTT9=
EXTT10=
EXTT11=
EXTT12=
EXTT13=
PLAYORDER=
